<svg xmlns="http://www.w3.org/2000/svg" width="672" height="221" viewBox="0 0 672 221">
  <rect width="100%" height="100%" fill="#FAFAFA"/>
  <rect x="479.0" y="50.0" width="121.0" height="78.0" rx="8" fill="none" stroke="#8E44AD" stroke-width="2" stroke-dasharray="6,3"/>
  <rect x="324.6" y="50.0" width="144.4" height="78.0" rx="8" fill="none" stroke="#8E44AD" stroke-width="2" stroke-dasharray="6,3"/>
  <circle cx="24.0" cy="80.0" r="6" fill="#333333"/>
  <line x1="30.0" y1="80.0" x2="40.0" y2="80.0" stroke="#333333" stroke-width="2"/>
  <rect x="40.0" y="64.0" width="47.2" height="32.0" rx="6" fill="#4A90D9"/>
  <text x="63.6" y="80.0" fill="#FFFFFF" font-size="13" font-family="monospace, Consolas, Courier New" text-anchor="middle" dominant-baseline="central">http</text>
  <line x1="87.2" y1="80.0" x2="97.2" y2="80.0" stroke="#333333" stroke-width="2"/>
  <polygon points="95.2,76.0 103.2,80.0 95.2,84.0" fill="#333333"/>
  <rect x="97.2" y="64.0" width="40.0" height="32.0" rx="6" fill="#4A90D9"/>
  <text x="117.2" y="80.0" fill="#FFFFFF" font-size="13" font-family="monospace, Consolas, Courier New" text-anchor="middle" dominant-baseline="central">s</text>
  <rect x="97.2" y="100.0" width="40.0" height="20.0" rx="10" fill="#E67E22"/>
  <text x="117.2" y="110.0" fill="#FFFFFF" font-size="11" font-family="monospace, Consolas, Courier New" text-anchor="middle" dominant-baseline="central">?</text>
  <line x1="137.2" y1="80.0" x2="147.2" y2="80.0" stroke="#333333" stroke-width="2"/>
  <polygon points="145.2,76.0 153.2,80.0 145.2,84.0" fill="#333333"/>
  <rect x="147.2" y="64.0" width="40.0" height="32.0" rx="6" fill="#4A90D9"/>
  <text x="167.2" y="80.0" fill="#FFFFFF" font-size="13" font-family="monospace, Consolas, Courier New" text-anchor="middle" dominant-baseline="central">://</text>
  <line x1="187.2" y1="80.0" x2="197.2" y2="80.0" stroke="#333333" stroke-width="2"/>
  <polygon points="195.2,76.0 203.2,80.0 195.2,84.0" fill="#333333"/>
  <rect x="197.2" y="64.0" width="117.4" height="32.0" rx="6" fill="#27AE60"/>
  <text x="255.9" y="80.0" fill="#FFFFFF" font-size="13" font-family="monospace, Consolas, Courier New" text-anchor="middle" dominant-baseline="central">[a-zA-Z0-9.-]</text>
  <rect x="235.9" y="100.0" width="40.0" height="20.0" rx="10" fill="#E67E22"/>
  <text x="255.9" y="110.0" fill="#FFFFFF" font-size="11" font-family="monospace, Consolas, Courier New" text-anchor="middle" dominant-baseline="central">+</text>
  <line x1="314.6" y1="80.0" x2="324.6" y2="80.0" stroke="#333333" stroke-width="2"/>
  <polygon points="322.6,76.0 330.6,80.0 322.6,84.0" fill="#333333"/>
  <rect x="332.6" y="64.0" width="40.0" height="32.0" rx="6" fill="#4A90D9"/>
  <text x="352.6" y="80.0" fill="#FFFFFF" font-size="13" font-family="monospace, Consolas, Courier New" text-anchor="middle" dominant-baseline="central">.</text>
  <line x1="372.6" y1="80.0" x2="382.6" y2="80.0" stroke="#333333" stroke-width="2"/>
  <polygon points="380.6,76.0 388.6,80.0 380.6,84.0" fill="#333333"/>
  <rect x="382.6" y="64.0" width="78.4" height="32.0" rx="6" fill="#27AE60"/>
  <text x="421.8" y="80.0" fill="#FFFFFF" font-size="13" font-family="monospace, Consolas, Courier New" text-anchor="middle" dominant-baseline="central">[a-zA-Z]</text>
  <rect x="398.2" y="100.0" width="47.2" height="20.0" rx="10" fill="#E67E22"/>
  <text x="421.8" y="110.0" fill="#FFFFFF" font-size="11" font-family="monospace, Consolas, Courier New" text-anchor="middle" dominant-baseline="central">{2,}</text>
  <text x="396.8" y="60.0" fill="#8E44AD" font-size="11" font-family="monospace, Consolas, Courier New" text-anchor="middle" dominant-baseline="central">non-capture</text>
  <line x1="469.0" y1="80.0" x2="479.0" y2="80.0" stroke="#333333" stroke-width="2"/>
  <polygon points="477.0,76.0 485.0,80.0 477.0,84.0" fill="#333333"/>
  <rect x="487.0" y="64.0" width="40.0" height="32.0" rx="6" fill="#4A90D9"/>
  <text x="507.0" y="80.0" fill="#FFFFFF" font-size="13" font-family="monospace, Consolas, Courier New" text-anchor="middle" dominant-baseline="central">/</text>
  <line x1="527.0" y1="80.0" x2="537.0" y2="80.0" stroke="#333333" stroke-width="2"/>
  <polygon points="535.0,76.0 543.0,80.0 535.0,84.0" fill="#333333"/>
  <rect x="537.0" y="64.0" width="55.0" height="32.0" rx="6" fill="#27AE60"/>
  <text x="564.5" y="80.0" fill="#FFFFFF" font-size="13" font-family="monospace, Consolas, Courier New" text-anchor="middle" dominant-baseline="central">[^\s]</text>
  <rect x="544.5" y="100.0" width="40.0" height="20.0" rx="10" fill="#E67E22"/>
  <text x="564.5" y="110.0" fill="#FFFFFF" font-size="11" font-family="monospace, Consolas, Courier New" text-anchor="middle" dominant-baseline="central">*</text>
  <text x="539.5" y="60.0" fill="#8E44AD" font-size="11" font-family="monospace, Consolas, Courier New" text-anchor="middle" dominant-baseline="central">non-capture</text>
  <rect x="519.5" y="100.0" width="40.0" height="20.0" rx="10" fill="#E67E22"/>
  <text x="539.5" y="110.0" fill="#FFFFFF" font-size="11" font-family="monospace, Consolas, Courier New" text-anchor="middle" dominant-baseline="central">?</text>
  <line x1="600.0" y1="80.0" x2="612.0" y2="80.0" stroke="#333333" stroke-width="2"/>
  <circle cx="618.0" cy="80.0" r="6" fill="none" stroke="#333333" stroke-width="2"/>
  <circle cx="618.0" cy="80.0" r="3" fill="#333333"/>
  <text x="40.0" y="24" fill="#333" font-size="14" font-family="monospace">Regex: https?://[a-zA-Z0-9.-]+(?:\.[a-zA-Z]{2,})(?:/[^\s]*)?</text>
  <rect x="40.0" y="181.0" width="14.0" height="14.0" rx="3" fill="#4A90D9"/>
  <text x="60.0" y="192.0" fill="#333" font-size="11" font-family="sans-serif">Literal</text>
  <rect x="136.0" y="181.0" width="14.0" height="14.0" rx="3" fill="#27AE60"/>
  <text x="156.0" y="192.0" fill="#333" font-size="11" font-family="sans-serif">Char Class</text>
  <rect x="256.0" y="181.0" width="14.0" height="14.0" rx="3" fill="#E67E22"/>
  <text x="276.0" y="192.0" fill="#333" font-size="11" font-family="sans-serif">Quantifier</text>
  <rect x="376.0" y="181.0" width="14.0" height="14.0" rx="3" fill="#8E44AD"/>
  <text x="396.0" y="192.0" fill="#333" font-size="11" font-family="sans-serif">Group</text>
  <rect x="456.0" y="181.0" width="14.0" height="14.0" rx="3" fill="#E74C3C"/>
  <text x="476.0" y="192.0" fill="#333" font-size="11" font-family="sans-serif">Anchor</text>
</svg>